<?xml version="1.0" encoding="UTF-8"?>
<svg version="1.1" viewBox="0 0 666.67 666.67" xml:space="preserve" xmlns="http://www.w3.org/2000/svg">
    <defs><clipPath id="a"><path d="m0 500h500v-500h-500z"/></clipPath></defs>
    <g transform="matrix(1.3333 0 0 -1.3333 0 666.67)"><g clip-path="url(#a)"><g transform="translate(250,485)"><path class="catch-logo" d="m0 0c-31.707 0-62.487-6.219-91.485-18.484-27.989-11.838-53.116-28.777-74.685-50.346s-38.508-46.697-50.346-74.685c-12.265-28.998-18.484-59.778-18.484-91.485s6.219-62.487 18.484-91.484c11.838-27.99 28.777-53.117 50.346-74.686s46.696-38.508 74.685-50.347c28.998-12.264 59.778-18.483 91.485-18.483s62.487 6.219 91.484 18.483c27.99 11.839 53.117 28.778 74.686 50.347s38.508 46.696 50.347 74.686c12.264 28.997 18.483 59.777 18.483 91.484s-6.219 62.487-18.483 91.485c-11.839 27.988-28.778 53.116-50.347 74.685s-46.696 38.508-74.686 50.346c-28.997 12.265-59.777 18.484-91.484 18.484m0-40c107.7 0 195-87.305 195-195s-87.305-195-195-195c-107.7 0-195 87.305-195 195s87.304 195 195 195"/></g><g transform="translate(308.75,212.5)"><path class="catch-logo" d="m0 0c-20.711 0-37.5 16.789-37.5 37.5s16.789 37.5 37.5 37.5 37.5-16.789 37.5-37.5-16.79-37.5-37.5-37.5"/></g><g transform="translate(221.25,288.75)"><path class="catch-logo" d="m0 0c-20.711 0-37.5 16.789-37.5 37.5s16.789 37.5 37.5 37.5 37.5-16.789 37.5-37.5-16.789-37.5-37.5-37.5"/></g><g transform="translate(221.25,136.25)"><path class="catch-logo" d="m0 0c-20.711 0-37.5 16.789-37.5 37.5s16.789 37.5 37.5 37.5 37.5-16.789 37.5-37.5-16.789-37.5-37.5-37.5"/></g></g></g></svg>
